<svg width="24" height="24" viewBox="0 0 24 24" fill="none" xmlns="http://www.w3.org/2000/svg">
<g clip-path="url(#clip0_1154_2444)">
<path d="M21.1575 18.7284L15.374 9.08625V3.75H16.124C16.323 3.75 16.5137 3.67098 16.6544 3.53033C16.795 3.38968 16.874 3.19891 16.874 3C16.874 2.80109 16.795 2.61032 16.6544 2.46967C16.5137 2.32902 16.323 2.25 16.124 2.25H8.62404C8.42513 2.25 8.23437 2.32902 8.09371 2.46967C7.95306 2.61032 7.87404 2.80109 7.87404 3C7.87404 3.19891 7.95306 3.38968 8.09371 3.53033C8.23437 3.67098 8.42513 3.75 8.62404 3.75H9.37404V9.08625L3.59061 18.7284C3.4542 18.9558 3.38053 19.2154 3.37708 19.4805C3.37363 19.7457 3.44054 20.007 3.57099 20.2379C3.70143 20.4688 3.89075 20.6609 4.11966 20.7948C4.34856 20.9287 4.60886 20.9995 4.87404 21H19.874C20.1395 21 20.4001 20.9295 20.6294 20.7959C20.8587 20.6622 21.0484 20.4701 21.1792 20.2391C21.31 20.0081 21.3772 19.7466 21.3738 19.4812C21.3705 19.2158 21.2968 18.9561 21.1603 18.7284H21.1575ZM10.7672 9.67969C10.8373 9.56342 10.8743 9.43016 10.874 9.29437V3.75H13.874V9.29437C13.8738 9.43016 13.9108 9.56342 13.9809 9.67969L17.564 15.6562C16.439 15.8784 14.8387 15.7847 12.7125 14.7084C11.2209 13.9537 9.80154 13.5534 8.47311 13.5075L10.7672 9.67969ZM4.87404 19.5L7.54967 15.0394C8.88561 14.8763 10.3912 15.2128 12.0328 16.0444C13.814 16.9453 15.314 17.2519 16.5328 17.2519C17.1526 17.2546 17.7697 17.1694 18.3656 16.9988L19.874 19.5H4.87404Z" fill="#5F5F5F"/>
</g>
<defs>
<clipPath id="clip0_1154_2444">
<rect width="24" height="24" fill="white"/>
</clipPath>
</defs>
</svg>
