<svg width="18" height="19" viewBox="0 0 18 19" fill="none" xmlns="http://www.w3.org/2000/svg">
<path d="M17.7805 16.4784L11.9971 6.83625V1.5H12.7471C12.946 1.5 13.1368 1.42098 13.2774 1.28033C13.4181 1.13968 13.4971 0.948912 13.4971 0.75C13.4971 0.551088 13.4181 0.360322 13.2774 0.21967C13.1368 0.0790176 12.946 0 12.7471 0H5.24709C5.04818 0 4.85741 0.0790176 4.71676 0.21967C4.57611 0.360322 4.49709 0.551088 4.49709 0.75C4.49709 0.948912 4.57611 1.13968 4.71676 1.28033C4.85741 1.42098 5.04818 1.5 5.24709 1.5H5.99709V6.83625L0.213654 16.4784C0.0772513 16.7058 0.00357299 16.9654 0.00012671 17.2305C-0.00331957 17.4957 0.0635893 17.757 0.194035 17.9879C0.324481 18.2188 0.513802 18.4109 0.742705 18.5448C0.971608 18.6787 1.23191 18.7495 1.49709 18.75H16.4971C16.7625 18.75 17.0232 18.6795 17.2525 18.5459C17.4818 18.4122 17.6715 18.2201 17.8023 17.9891C17.933 17.7581 18.0002 17.4966 17.9969 17.2312C17.9936 16.9658 17.9199 16.7061 17.7833 16.4784H17.7805ZM9.33553 12.4556C7.84397 11.7009 6.42459 11.3006 5.09615 11.2547L7.39022 7.42969C7.46036 7.31342 7.49732 7.18016 7.49709 7.04437V1.5H10.4971V7.04437C10.4969 7.18016 10.5338 7.31342 10.604 7.42969L14.1871 13.4062C13.0658 13.6256 11.4618 13.5319 9.33553 12.4556Z" fill="#E8AB18"/>
</svg>
