<svg width="24" height="24" viewBox="0 0 24 24" fill="none" xmlns="http://www.w3.org/2000/svg">
<g clip-path="url(#clip0_1154_2425)">
<path d="M8.625 12.7573C8.4025 12.7573 8.18499 12.6913 7.99999 12.5677C7.81498 12.4441 7.67079 12.2684 7.58564 12.0628C7.50049 11.8573 7.47821 11.6311 7.52162 11.4128C7.56503 11.1946 7.67217 10.9942 7.82951 10.8368C7.98684 10.6795 8.1873 10.5723 8.40553 10.5289C8.62376 10.4855 8.84996 10.5078 9.05552 10.593C9.26109 10.6781 9.43679 10.8223 9.56041 11.0073C9.68402 11.1923 9.75 11.4098 9.75 11.6323C9.75 11.9307 9.63148 12.2168 9.4205 12.4278C9.20952 12.6388 8.92337 12.7573 8.625 12.7573ZM15.375 10.5073C15.1525 10.5073 14.935 10.5733 14.75 10.6969C14.565 10.8205 14.4208 10.9962 14.3356 11.2018C14.2505 11.4074 14.2282 11.6336 14.2716 11.8518C14.315 12.07 14.4222 12.2705 14.5795 12.4278C14.7368 12.5852 14.9373 12.6923 15.1555 12.7357C15.3738 12.7791 15.6 12.7568 15.8055 12.6717C16.0111 12.5865 16.1868 12.4423 16.3104 12.2573C16.434 12.0723 16.5 11.8548 16.5 11.6323C16.5 11.334 16.3815 11.0478 16.1705 10.8368C15.9595 10.6259 15.6734 10.5073 15.375 10.5073ZM14.2247 14.7476C13.5567 15.1622 12.7862 15.3819 12 15.3819C11.2138 15.3819 10.4433 15.1622 9.77532 14.7476C9.60699 14.6415 9.40338 14.6065 9.20928 14.6505C9.01518 14.6944 8.84649 14.8137 8.74032 14.982C8.63415 15.1503 8.5992 15.354 8.64315 15.5481C8.6871 15.7422 8.80636 15.9108 8.97469 16.017C9.88233 16.5828 10.9304 16.8828 12 16.8828C13.0696 16.8828 14.1177 16.5828 15.0253 16.017C15.1936 15.9108 15.3129 15.7422 15.3569 15.5481C15.4008 15.354 15.3659 15.1503 15.2597 14.982C15.1535 14.8137 14.9848 14.6944 14.7907 14.6505C14.5966 14.6065 14.393 14.6415 14.2247 14.7476ZM21.75 11.6323C21.75 13.5607 21.1782 15.4458 20.1068 17.0491C19.0355 18.6525 17.5127 19.9022 15.7312 20.6401C13.9496 21.3781 11.9892 21.5712 10.0979 21.195C8.20656 20.8188 6.46928 19.8902 5.10571 18.5266C3.74215 17.1631 2.81355 15.4258 2.43735 13.5345C2.06114 11.6431 2.25422 9.68274 2.99218 7.90116C3.73013 6.11958 4.97982 4.59684 6.58319 3.5255C8.18657 2.45415 10.0716 1.88232 12 1.88232C14.585 1.88505 17.0634 2.91316 18.8913 4.74105C20.7192 6.56894 21.7473 9.0473 21.75 11.6323ZM20.25 11.6323C20.2474 9.50855 19.4269 7.46739 17.9589 5.93268C16.4909 4.39797 14.4881 3.48766 12.3666 3.39076C11.28 4.91795 11.25 6.37107 11.25 6.38232C11.25 6.58124 11.329 6.772 11.4697 6.91265C11.6103 7.05331 11.8011 7.13232 12 7.13232C12.1989 7.13232 12.3897 7.05331 12.5303 6.91265C12.671 6.772 12.75 6.58124 12.75 6.38232C12.75 6.18341 12.829 5.99265 12.9697 5.85199C13.1103 5.71134 13.3011 5.63232 13.5 5.63232C13.6989 5.63232 13.8897 5.71134 14.0303 5.85199C14.171 5.99265 14.25 6.18341 14.25 6.38232C14.25 6.97906 14.013 7.55136 13.591 7.97331C13.169 8.39527 12.5967 8.63232 12 8.63232C11.4033 8.63232 10.831 8.39527 10.409 7.97331C9.98706 7.55136 9.75 6.97906 9.75 6.38232C9.75 6.31389 9.76219 5.0417 10.5431 3.51076C8.99846 3.78789 7.56488 4.49984 6.41061 5.56306C5.25633 6.62629 4.42926 7.99668 4.02643 9.51343C3.6236 11.0302 3.66173 12.6304 4.13635 14.1262C4.61097 15.622 5.50238 16.9515 6.70599 17.9585C7.9096 18.9655 9.37546 19.6084 10.9316 19.8116C12.4877 20.0149 14.0695 19.7701 15.4914 19.1059C16.9132 18.4418 18.1162 17.3859 18.9591 16.0621C19.8019 14.7384 20.2498 13.2017 20.25 11.6323Z" fill="#666666"/>
</g>
<defs>
<clipPath id="clip0_1154_2425">
<rect width="24" height="24" fill="white"/>
</clipPath>
</defs>
</svg>
