<svg width="24" height="30" viewBox="0 0 24 30" fill="none" xmlns="http://www.w3.org/2000/svg">
<path d="M13.657 9.65208C10.13 11.0999 7.77185 13.6082 6.83417 16.5773C5.89649 19.5463 5.84421 28.9793 7.17443 29.1339C8.50465 29.2885 18.1002 25.3518 21.3907 21.3727C24.6813 17.3937 24.4448 13.7789 22.9473 11.7894C21.4498 9.79981 17.184 8.20424 13.657 9.65208Z" fill="#E8AB18"/>
<path d="M19.8563 15.3402C19.8563 17.1849 18.3608 18.6804 16.516 18.6804C14.6713 18.6804 13.1758 17.1849 13.1758 15.3402C13.1758 13.4955 14.6713 12 16.516 12C18.3608 12 19.8563 13.4955 19.8563 15.3402Z" fill="#E7DFC9"/>
<path d="M11.0105 5.50512C11.0105 8.54552 8.5457 11.0102 5.50524 11.0102C2.46478 11.0102 0 8.54552 0 5.50512C0 2.46473 2.46478 0 5.50524 0C8.5457 0 11.0105 2.46473 11.0105 5.50512Z" fill="#FFF7EB"/>
</svg>
