<svg width="56" height="56" viewBox="0 0 56 56" fill="none" xmlns="http://www.w3.org/2000/svg">
<rect width="56" height="56" rx="28" fill="#1C1C1C"/>
<path d="M29.657 23.0827C26.13 24.5306 23.7719 27.0389 22.8342 30.0079C21.8965 32.977 21.8442 42.4099 23.1744 42.5646C24.5046 42.7192 34.1002 38.7824 37.3907 34.8034C40.6813 30.8243 40.4448 27.2096 38.9473 25.22C37.4498 23.2305 33.184 21.6349 29.657 23.0827Z" fill="#E8AB18"/>
<path d="M35.8563 28.7708C35.8563 30.6156 34.3608 32.111 32.516 32.111C30.6713 32.111 29.1758 30.6156 29.1758 28.7708C29.1758 26.9261 30.6713 25.4307 32.516 25.4307C34.3608 25.4307 35.8563 26.9261 35.8563 28.7708Z" fill="#E7DFC9"/>
<path d="M27.0105 18.9358C27.0105 21.9762 24.5457 24.4409 21.5052 24.4409C18.4648 24.4409 16 21.9762 16 18.9358C16 15.8954 18.4648 13.4307 21.5052 13.4307C24.5457 13.4307 27.0105 15.8954 27.0105 18.9358Z" fill="#FFF7EB"/>
</svg>
